<svg width="16" height="16" viewBox="0 0 16 16" fill="none" xmlns="http://www.w3.org/2000/svg">
<rect width="16" height="16" rx="8" fill="white"/>
<path d="M7.976 4.432C8.04 4.47467 8.072 4.53067 8.072 4.6C8.072 4.67467 8.02933 4.74667 7.944 4.816C7.66133 5.04 7.432 5.33067 7.256 5.688C7.08 6.04 6.896 6.48533 6.704 7.024L6.632 7.224C6.456 7.69867 6.288 8.20267 6.128 8.736C5.968 9.26933 5.87467 9.584 5.848 9.68C5.75733 9.99467 5.67467 10.272 5.6 10.512C5.57867 10.5813 5.49867 10.6533 5.36 10.728C5.22667 10.7973 5.10133 10.832 4.984 10.832C4.85067 10.832 4.77333 10.7813 4.752 10.68C4.45867 9.22933 4.312 7.76 4.312 6.272C4.312 5.776 4.328 5.28 4.36 4.784C4.36533 4.688 4.43467 4.60267 4.568 4.528C4.70667 4.45333 4.84267 4.416 4.976 4.416C5.05067 4.416 5.10933 4.432 5.152 4.464C5.2 4.496 5.22133 4.54133 5.216 4.6C5.18933 5.14933 5.176 5.64267 5.176 6.08C5.176 6.99733 5.224 7.848 5.32 8.632C5.576 7.84267 5.77067 7.27467 5.904 6.928C6.064 6.52267 6.2 6.19467 6.312 5.944C6.424 5.688 6.568 5.43467 6.744 5.184C6.92 4.928 7.12533 4.72 7.36 4.56C7.53067 4.44267 7.68267 4.384 7.816 4.384C7.87467 4.384 7.928 4.4 7.976 4.432ZM10.0677 9.824C10.313 9.62133 10.5557 9.328 10.7957 8.944C11.0357 8.56 11.233 8.144 11.3877 7.696C11.5424 7.248 11.6197 6.82933 11.6197 6.44C11.6197 6.01333 11.5104 5.66133 11.2917 5.384C11.0784 5.10667 10.737 4.94133 10.2677 4.888C9.81435 4.97867 9.33435 5.52267 8.82769 6.52C8.39569 7.37333 8.17969 8.11733 8.17969 8.752C8.17969 8.976 8.20635 9.18667 8.25969 9.384C8.32902 9.64 8.44635 9.83467 8.61169 9.968C8.78235 10.1013 8.97969 10.168 9.20369 10.168C9.50235 10.168 9.79035 10.0533 10.0677 9.824ZM11.4037 4.48C11.7504 4.63467 12.009 4.88267 12.1797 5.224C12.3504 5.56533 12.4357 5.95467 12.4357 6.392C12.4357 6.66933 12.3957 6.976 12.3157 7.312C12.1397 8.016 11.841 8.66933 11.4197 9.272C10.9984 9.87467 10.489 10.3067 9.89169 10.568C9.58235 10.7013 9.27569 10.768 8.97169 10.768C8.56102 10.768 8.20635 10.6533 7.90769 10.424C7.60902 10.1947 7.42769 9.86667 7.36369 9.44C7.34235 9.296 7.33169 9.13867 7.33169 8.968C7.33169 8.43467 7.44102 7.888 7.65969 7.328C7.87835 6.76267 8.15835 6.23733 8.49969 5.752C8.77702 5.35733 9.11035 5.016 9.49969 4.728C9.89435 4.43467 10.2917 4.288 10.6917 4.288C10.9317 4.288 11.1637 4.34933 11.3877 4.472L11.4037 4.48Z" fill="black"/>
</svg>
